<?xml version="1.0" encoding="iso-8859-1"?>
<!-- Generator: Adobe Illustrator 19.0.0, SVG Export Plug-In . SVG Version: 6.00 Build 0)  -->
<svg version="1.1" id="Capa_1" xmlns="http://www.w3.org/2000/svg" xmlns:xlink="http://www.w3.org/1999/xlink" x="0px" y="0px"
	 viewBox="0 0 512.004 512.004" style="enable-background:new 0 0 512.004 512.004;" xml:space="preserve">
<g>
	<g>
		<path d="M497.432,38.713l-24.139-24.139c-3.337-3.338-8.741-3.338-12.07,0l-42.252,42.252c-1.605,1.596-2.501,3.773-2.501,6.035
			c0,2.262,0.896,4.43,2.501,6.035l24.139,24.139c1.664,1.664,3.85,2.501,6.035,2.501s4.37-0.828,6.035-2.501l42.252-42.252
			c1.605-1.596,2.501-3.773,2.501-6.035C499.933,42.486,499.036,40.318,497.432,38.713z M449.145,74.93l-12.07-12.07l30.174-30.174
			l12.07,12.061L449.145,74.93z"/>
	</g>
</g>
<g>
	<g>
		<path d="M461.214,87l-36.217-36.209c-3.337-3.337-8.741-3.337-12.07,0L105.111,358.607c-3.338,3.337-3.338,8.732,0,12.07
			l36.209,36.217c1.596,1.605,3.773,2.501,6.035,2.501c2.271,0,4.439-0.905,6.035-2.501L461.214,99.069
			c1.605-1.596,2.501-3.773,2.501-6.035S462.819,88.604,461.214,87z M147.355,388.79l-24.139-24.148L418.962,68.904l24.139,24.139
			L147.355,388.79z"/>
	</g>
</g>
<g>
	<g>
		<path d="M153.381,394.824l-36.209-36.217c-2.441-2.45-6.112-3.167-9.304-1.852c-3.184,1.323-5.267,4.439-5.267,7.887
			c0,6.752-3.107,13.734-8.527,19.154c-5.42,5.42-12.402,8.527-19.146,8.527c-3.448,0-6.564,2.074-7.887,5.267
			s-0.589,6.863,1.852,9.304l36.217,36.217c1.63,1.63,3.815,2.501,6.035,2.501c1.101,0,2.211-0.213,3.261-0.649
			c3.184-1.323,5.267-4.439,5.267-7.887c0-6.743,3.107-13.726,8.527-19.146c5.42-5.429,12.394-8.536,19.146-8.536
			c3.457,0,6.564-2.074,7.887-5.267C156.556,400.936,155.822,397.266,153.381,394.824z M116.14,405.853
			c-4.217,4.217-7.546,9.099-9.85,14.297l-14.434-14.434c5.207-2.305,10.081-5.634,14.297-9.85c4.217-4.208,7.546-9.091,9.85-14.297
			l14.434,14.434C125.23,398.307,120.348,401.644,116.14,405.853z"/>
	</g>
</g>
<g>
	<g>
		<path d="M117.181,431.033l-36.217-36.217c-3.329-3.337-8.741-3.337-12.07,0l-36.217,36.217c-3.337,3.337-3.337,8.732,0,12.07
			l36.217,36.217c1.664,1.664,3.85,2.501,6.035,2.501c2.185,0,4.37-0.828,6.035-2.501l36.217-36.217
			C120.518,439.765,120.518,434.37,117.181,431.033z M74.929,461.224L50.79,437.076l24.139-24.148l24.139,24.148L74.929,461.224z"/>
	</g>
</g>
<g>
	<g>
		<path d="M80.964,467.259l-36.217-36.217c-2.177-2.177-5.36-3.022-8.314-2.194c-2.962,0.819-5.258,3.167-6.001,6.154l-12.07,48.287
			c-0.726,2.911,0.12,5.992,2.245,8.109c1.622,1.622,3.798,2.501,6.035,2.501c0.691,0,1.391-0.085,2.074-0.248l48.287-12.078
			c2.979-0.743,5.335-3.039,6.154-6.001C83.977,472.611,83.14,469.435,80.964,467.259z M38.37,473.635l4.968-19.863l14.895,14.895
			L38.37,473.635z"/>
	</g>
</g>
<g>
	<g>
		<path d="M32.677,479.328c-3.329-3.337-8.732-3.337-12.07,0L2.503,497.433c-3.337,3.338-3.337,8.732,0,12.07
			c1.664,1.664,3.85,2.501,6.035,2.501c2.185,0,4.37-0.837,6.035-2.501l18.104-18.104C36.014,488.06,36.014,482.666,32.677,479.328z
			"/>
	</g>
</g>
<g>
	<g>
		<path d="M400.858,138.82c-4.712,0-8.536,3.824-8.536,8.536v48.287c0,4.712,3.824,8.536,8.536,8.536s8.536-3.815,8.536-8.536
			v-48.287C409.394,142.644,405.57,138.82,400.858,138.82z"/>
	</g>
</g>
<g>
	<g>
		<path d="M406.884,189.616c-3.329-3.337-8.741-3.337-12.07,0l-84.495,84.495c-3.337,3.338-3.337,8.732,0,12.07
			c1.664,1.664,3.85,2.501,6.035,2.501c2.185,0,4.37-0.837,6.035-2.501l84.495-84.495
			C410.222,198.348,410.222,192.954,406.884,189.616z"/>
	</g>
</g>
<g>
	<g>
		<path d="M406.893,141.33l-36.209-36.217c-3.201-3.201-8.869-3.201-12.07,0l-24.148,24.148c-1.605,1.596-2.501,3.773-2.501,6.035
			c0,2.262,0.896,4.43,2.501,6.035l36.217,36.209c1.664,1.664,3.85,2.501,6.035,2.501c2.177,0,4.362-0.836,6.035-2.501
			l24.139-24.139c1.605-1.596,2.501-3.773,2.501-6.035S408.498,142.934,406.893,141.33z M376.71,159.434l-24.139-24.139
			l12.07-12.078l24.139,24.148L376.71,159.434z"/>
	</g>
</g>
<g>
	<g>
		<path d="M228.265,319.949l-36.217-36.217c-3.201-3.201-8.869-3.201-12.07,0l-24.139,24.148c-3.337,3.337-3.337,8.732,0,12.07
			l36.217,36.217c1.596,1.605,3.773,2.501,6.035,2.501s4.439-0.905,6.035-2.501l24.139-24.148
			C231.603,328.681,231.603,323.286,228.265,319.949z M198.1,338.062l-24.148-24.148l12.078-12.078l24.139,24.148L198.1,338.062z"/>
	</g>
</g>
<g>
	<g>
		<path d="M509.501,50.791L461.214,2.504c-3.338-3.337-8.741-3.337-12.07,0c-3.337,3.337-3.337,8.732,0,12.07l48.287,48.287
			c1.664,1.664,3.85,2.501,6.035,2.501c2.185,0,4.37-0.828,6.035-2.501C512.839,59.523,512.839,54.128,509.501,50.791z"/>
	</g>
</g>
<g>
</g>
<g>
</g>
<g>
</g>
<g>
</g>
<g>
</g>
<g>
</g>
<g>
</g>
<g>
</g>
<g>
</g>
<g>
</g>
<g>
</g>
<g>
</g>
<g>
</g>
<g>
</g>
<g>
</g>
</svg>
